# xmcd
#
# Track frame offsets:
# 150
# 17635
# 38292
# 58132
# 75372
# 96132
# 114877
# 135560
# 157360
# 179670
#
# Disc length: 2679 seconds
#
#
# Revision: 0
# Processed by: cddbd v1.5PL3 Copyright (c) Steve Scherf et al.
# Submitted via: FreeRIP 2.52
#
DISCID=760a750a
DTITLE=井上陽水 - CRISTAL WIND 井上陽水　作品集
DYEAR=1900
DGENRE=Easy Listening
TTITLE0=少年時代
TTITLE1=新しいラプソディ
TTITLE2=リバーサイドホテル
TTITLE3=いっそセレナーデ
TTITLE4=心もよう
TTITLE5=夢の中へ
TTITLE6=ジェラシー
TTITLE7=今夜、私に
TTITLE8=GOOD GOOD BY
TTITLE9=夏の終わりのハーモニー
EXTD=
EXTT0=
EXTT1=
EXTT2=
EXTT3=
EXTT4=
EXTT5=
EXTT6=
EXTT7=
EXTT8=
EXTT9=
PLAYORDER=
